<?xml version="1.0" encoding="UTF-8" standalone="no"?>
<!DOCTYPE svg PUBLIC "-//W3C//DTD SVG 1.1//EN" "http://www.w3.org/Graphics/SVG/1.1/DTD/svg11.dtd">
<svg width="100%" height="100%" viewBox="0 0 112 96" version="1.1" xmlns="http://www.w3.org/2000/svg" xmlns:xlink="http://www.w3.org/1999/xlink" xml:space="preserve" xmlns:serif="http://www.serif.com/" style="fill-rule:evenodd;clip-rule:evenodd;stroke-linejoin:round;stroke-miterlimit:1.41421;">
    <g transform="matrix(1,0,0,1,-907.037,-484.731)">
        <g transform="matrix(1,0,0,1,105.989,70.1618)">
            <g transform="matrix(0.220588,0,0,0.672727,624.346,157.933)">
                <rect x="801.047" y="441.52" width="507.554" height="82.104" style="fill:rgb(229,242,13);fill-opacity:0.647059;"/>
            </g>
            <g transform="matrix(2.46792,0,0,2.46792,-355.911,-649.222)">
                <path d="M506.73,455.948C506.73,456.348 506.597,456.69 506.33,456.973C506.064,457.257 505.714,457.398 505.28,457.398C504.68,457.398 504.38,457.098 504.38,456.498C504.38,449.765 504.164,444.607 503.73,441.023C503.297,437.44 502.547,435.648 501.48,435.648C499.68,435.648 497.047,441.932 493.58,454.498L493.58,454.548C493.58,454.948 493.447,455.29 493.18,455.573C492.914,455.857 492.564,455.998 492.13,455.998C491.53,455.998 491.23,455.698 491.23,455.098C491.23,453.765 491.297,451.698 491.43,448.898C491.564,445.765 491.63,443.298 491.63,441.498C491.63,438.998 491.555,437.223 491.405,436.173C491.255,435.123 490.93,434.598 490.43,434.598C489.297,434.598 487.864,436.673 486.13,440.823C484.397,444.973 482.58,449.865 480.68,455.498L480.23,456.798C480.097,457.132 479.905,457.415 479.655,457.648C479.405,457.882 479.13,457.998 478.83,457.998C478.43,457.998 478.164,457.965 478.03,457.898C477.897,457.832 477.814,457.632 477.78,457.298C477.614,455.665 477.48,453.482 477.38,450.748C477.314,450.048 477.247,448.898 477.18,447.298C476.847,441.665 476.547,437.857 476.28,435.873C476.014,433.89 475.88,432.782 475.88,432.548C475.88,432.282 476.014,431.965 476.28,431.598C476.547,431.232 476.797,431.048 477.03,431.048C477.564,431.048 477.997,431.432 478.33,432.198C478.497,432.565 478.68,434.032 478.88,436.598C479.08,439.165 479.247,442.348 479.38,446.148L479.63,453.798C481.464,448.132 483.364,442.99 485.33,438.373C487.297,433.757 489.097,431.448 490.73,431.448C491.83,431.448 492.58,432.248 492.98,433.848C493.38,435.448 493.58,437.765 493.58,440.798C493.58,442.398 493.547,444.698 493.48,447.698L493.43,449.998C494.797,445.232 496.155,441.232 497.505,437.998C498.855,434.765 500.214,433.148 501.58,433.148C505.014,433.148 506.73,440.748 506.73,455.948Z" style="fill-rule:nonzero;"/>
            </g>
        </g>
    </g>
</svg>
